# xmcd
#
# Track frame offsets:
#	150
#	18107
#	36767
#	44952
#	63087
#	79790
#	96822
#	109120
#	124922
#	140072
#	157192
#	171705
#
# Disc length: 2493 seconds
#
# Revision: 5
# Processed by: cddbd v1.5.2PL0 Copyright (c) Steve Scherf et al.
# Submitted via: audiograbber 1.80
#
DISCID=ab09bb0c
DTITLE=Martina McBride - White Christmas
DYEAR=2002
DGENRE=Country
TTITLE0=Do you Hear What I hear
TTITLE1=Have Yourself a Merry Little Christmas
TTITLE2=Let It Snow, Let it Snow, Let it Snow
TTITLE3=O Come All Ye Faithful
TTITLE4=The Christmas Song
TTITLE5=O Holy Night
TTITLE6=Silver Bells
TTITLE7=Away In A Manger
TTITLE8=White Christmas
TTITLE9=What Child IsThis
TTITLE10=I'll Be Home For Christmas
TTITLE11=Silent Night
EXTD=ID3G:   2 YEAR: 2002
EXTT0=
EXTT1=
EXTT2=
EXTT3=
EXTT4=
EXTT5=
EXTT6=
EXTT7=
EXTT8=
EXTT9=
EXTT10=
EXTT11=
PLAYORDER=
